TITLE ""
FILE "Disc1Track25.mp3" MP3
  TRACK 01 AUDIO
    TITLE "Disc1Track25_01"
    INDEX 01 00:00:00
  TRACK 02 AUDIO
    TITLE "Disc1Track25_02"
    INDEX 01 00:01:27
  TRACK 03 AUDIO
    TITLE "Disc1Track25_03"
    INDEX 01 00:04:63
  TRACK 04 AUDIO
    TITLE "Disc1Track25_04"
    INDEX 01 00:06:29
  TRACK 05 AUDIO
    TITLE "Disc1Track25_05"
    INDEX 01 00:06:60
  TRACK 06 AUDIO
    TITLE "Disc1Track25_06"
    INDEX 01 00:12:04
  TRACK 07 AUDIO
    TITLE "Disc1Track25_07"
    INDEX 01 00:12:43
  TRACK 08 AUDIO
    TITLE "Disc1Track25_08"
    INDEX 01 00:14:08
  TRACK 09 AUDIO
    TITLE "Disc1Track25_09"
    INDEX 01 00:16:05
  TRACK 10 AUDIO
    TITLE "Disc1Track25_10"
    INDEX 01 00:17:44
  TRACK 11 AUDIO
    TITLE "Disc1Track25_11"
    INDEX 01 00:19:41
  TRACK 12 AUDIO
    TITLE "Disc1Track25_12"
    INDEX 01 00:19:72
  TRACK 13 AUDIO
    TITLE "Disc1Track25_13"
    INDEX 01 00:21:30
  TRACK 14 AUDIO
    TITLE "Disc1Track25_14"
    INDEX 01 00:24:56
  TRACK 15 AUDIO
    TITLE "Disc1Track25_15"
    INDEX 01 00:26:12
  TRACK 16 AUDIO
    TITLE "Disc1Track25_16"
    INDEX 01 00:29:55
  TRACK 17 AUDIO
    TITLE "Disc1Track25_17"
    INDEX 01 00:30:11
  TRACK 18 AUDIO
    TITLE "Disc1Track25_18"
    INDEX 01 00:31:52
  TRACK 19 AUDIO
    TITLE "Disc1Track25_19"
    INDEX 01 00:35:09
  TRACK 20 AUDIO
    TITLE "Disc1Track25_20"
    INDEX 01 00:36:47
  TRACK 21 AUDIO
    TITLE "Disc1Track25_21"
    INDEX 01 00:41:41
  TRACK 22 AUDIO
    TITLE "Disc1Track25_22"
    INDEX 01 00:41:72
  TRACK 23 AUDIO
    TITLE "Disc1Track25_23"
    INDEX 01 00:43:47
  TRACK 24 AUDIO
    TITLE "Disc1Track25_24"
    INDEX 01 00:45:46
  TRACK 25 AUDIO
    TITLE "Disc1Track25_25"
    INDEX 01 00:47:24
  TRACK 26 AUDIO
    TITLE "Disc1Track25_26"
    INDEX 01 00:47:55
  TRACK 27 AUDIO
    TITLE "Disc1Track25_27"
    INDEX 01 00:49:36
  TRACK 28 AUDIO
    TITLE "Disc1Track25_28"
    INDEX 01 00:51:72
  TRACK 29 AUDIO
    TITLE "Disc1Track25_29"
    INDEX 01 00:53:57
  TRACK 30 AUDIO
    TITLE "Disc1Track25_30"
    INDEX 01 00:54:12
  TRACK 31 AUDIO
    TITLE "Disc1Track25_31"
    INDEX 01 00:55:58
  TRACK 32 AUDIO
    TITLE "Disc1Track25_32"
    INDEX 01 00:59:29
  TRACK 33 AUDIO
    TITLE "Disc1Track25_33"
    INDEX 01 01:00:73
  TRACK 34 AUDIO
    TITLE "Disc1Track25_34"
    INDEX 01 01:03:32
  TRACK 35 AUDIO
    TITLE "Disc1Track25_35"
    INDEX 01 01:03:68
  TRACK 36 AUDIO
    TITLE "Disc1Track25_36"
    INDEX 01 01:05:41
  TRACK 37 AUDIO
    TITLE "Disc1Track25_37"
    INDEX 01 01:06:39
  TRACK 38 AUDIO
    TITLE "Disc1Track25_38"
    INDEX 01 01:08:16
  TRACK 39 AUDIO
    TITLE "Disc1Track25_39"
    INDEX 01 01:08:47
  TRACK 40 AUDIO
    TITLE "Disc1Track25_40"
    INDEX 01 01:09:72
  TRACK 41 AUDIO
    TITLE "Disc1Track25_41"
    INDEX 01 01:11:46
  TRACK 42 AUDIO
    TITLE "Disc1Track25_42"
    INDEX 01 01:12:71
  TRACK 43 AUDIO
    TITLE "Disc1Track25_43"
    INDEX 01 01:16:47
  TRACK 44 AUDIO
    TITLE "Disc1Track25_44"
    INDEX 01 01:17:07
  TRACK 45 AUDIO
    TITLE "Disc1Track25_45"
    INDEX 01 01:18:40
  TRACK 46 AUDIO
    TITLE "Disc1Track25_46"
    INDEX 01 01:19:51
  TRACK 47 AUDIO
    TITLE "Disc1Track25_47"
    INDEX 01 01:21:13
  TRACK 48 AUDIO
    TITLE "Disc1Track25_48"
    INDEX 01 01:21:40
  TRACK 49 AUDIO
    TITLE "Disc1Track25_49"
    INDEX 01 01:23:08
  TRACK 50 AUDIO
    TITLE "Disc1Track25_50"
    INDEX 01 01:25:20
  TRACK 51 AUDIO
    TITLE "Disc1Track25_51"
    INDEX 01 01:26:61
  TRACK 52 AUDIO
    TITLE "Disc1Track25_52"
    INDEX 01 01:29:51
  TRACK 53 AUDIO
    TITLE "Disc1Track25_53"
    INDEX 01 01:30:08
  TRACK 54 AUDIO
    TITLE "Disc1Track25_54"
    INDEX 01 01:32:67
  TRACK 55 AUDIO
    TITLE "Disc1Track25_55"
    INDEX 01 01:36:34
  TRACK 56 AUDIO
    TITLE "Disc1Track25_56"
    INDEX 01 01:39:20
